<svg width="45" height="60" viewBox="0 0 45 60" fill="none" xmlns="http://www.w3.org/2000/svg">
<path d="M38.7309 1.16031C33.2383 0.242315 27.5797 7.99266 26.0101 20.3867C25.4322 20.327 24.839 20.2952 24.2325 20.2952C23.5788 20.2952 22.9405 20.33 22.3196 20.3986H22.3237V20.3976C21.0646 16.1066 19.2788 12.3472 16.8659 9.45709C16.8639 9.45411 16.8618 9.45113 16.8598 9.44914C16.3854 8.88185 15.8875 8.34833 15.3639 7.84959C15.3568 7.84264 15.3506 7.83767 15.3475 7.83469L15.3445 7.83171C14.5279 7.05876 13.6519 6.37225 12.7114 5.7831C12.069 5.38073 11.361 5.07572 10.608 4.93961C5.47495 4.01168 0.471032 10.1188 3.26294 16.4245C3.60719 17.2035 4.10205 17.9178 4.75879 18.4791C4.9012 18.6013 5.04771 18.7146 5.19525 18.8179C7.58553 20.484 10.4758 19.5471 11.8774 16.658C12.5874 16.972 13.2677 17.4697 13.9275 18.0976C15.0002 19.1189 16.0197 20.482 17.0217 21.9514H17.0237C12.4993 24.2713 9.733 28.8205 9.733 34.252C9.733 38.7725 13.2083 41.1827 18.2091 42.1514H18.2081L16.5401 43.0465C16.2317 42.983 15.9182 42.9551 15.6344 42.8975C15.1949 42.8101 14.8547 42.5438 14.6498 42.3441C14.5023 42.1991 14.281 42.1514 14.0812 42.215L13.2288 42.4872C12.8394 42.1842 12.2606 42.4524 12.2606 42.9353V44.6461C12.1438 44.7047 12.0331 44.7703 11.9276 44.8438C10.5946 45.7578 10.11 47.7041 10.9082 49.0364C11.1909 49.5093 11.6346 49.9047 12.2606 50.1501C12.363 50.1779 12.4634 50.1978 12.5587 50.2117V50.783C12.4112 50.7124 12.2626 50.6558 12.1141 50.6111C11.5639 50.4442 10.9655 50.5575 10.5137 50.9022C7.93388 52.8703 9.85902 58.0276 13.2657 58.0276H30.4546C31.1124 58.0276 31.7527 57.7981 32.2404 57.3689C32.5805 57.0709 32.8879 56.746 33.1625 56.3993C35.7177 58.8036 38.3027 57.1464 38.7299 55.2577C39.0086 54.3536 38.8836 53.54 38.4953 52.9001C37.8467 51.8331 36.4626 51.2489 34.9821 51.5361L34.9493 51.6255C35.2239 48.1591 33.7936 44.3421 31.0017 41.9944H30.9997C35.5978 40.9353 38.732 38.545 38.732 34.252C38.732 29.1017 36.1501 24.6478 31.8982 22.2296C33.2834 17.8224 35.439 13.9557 39.8477 11.16C44.5504 7.92311 43.073 1.85279 38.732 1.16031H38.7309Z" fill="white"/>
<path d="M37.8468 1.08678C38.1418 1.08678 38.4369 1.11162 38.731 1.1603C43.071 1.85278 44.5494 7.92211 39.8467 11.1599C35.438 13.9557 33.2824 17.8224 31.8972 22.2296C36.1491 24.6478 38.731 29.1017 38.731 34.252C38.731 38.544 35.5968 40.9343 30.9986 41.9944H31.0007C33.7936 44.3421 35.2239 48.1591 34.9483 51.6255L34.9821 51.536C35.2362 51.4864 35.4862 51.4635 35.7311 51.4635C36.9154 51.4635 37.9584 52.0159 38.4953 52.9001C38.8836 53.5399 39.0086 54.3536 38.7299 55.2577C38.4543 56.4748 37.2833 57.5954 35.8018 57.5954C34.9842 57.5954 34.0713 57.2537 33.1625 56.3993C32.8879 56.746 32.5806 57.0709 32.2404 57.3689C31.7527 57.7971 31.1134 58.0276 30.4546 58.0276H13.2657C9.86006 58.0276 7.93492 52.8703 10.5137 50.9022C10.8272 50.6628 11.2114 50.5356 11.6008 50.5356C11.7729 50.5356 11.945 50.5604 12.1141 50.6111C12.2626 50.6558 12.4122 50.7134 12.5587 50.783V50.2117C12.4634 50.1978 12.363 50.1779 12.2606 50.1501C11.6346 49.9047 11.191 49.5093 10.9082 49.0364C10.1101 47.7041 10.5947 45.7588 11.9276 44.8438C12.0331 44.7703 12.1438 44.7047 12.2606 44.6461V42.9353C12.2606 42.5935 12.5505 42.359 12.8589 42.359C12.986 42.359 13.1151 42.3988 13.2288 42.4872L14.0812 42.215C14.1386 42.1971 14.199 42.1872 14.2585 42.1872C14.4029 42.1872 14.5453 42.2408 14.6498 42.3441C14.8537 42.5438 15.1939 42.8101 15.6344 42.8975C15.9182 42.9551 16.2328 42.9829 16.5401 43.0465L18.2081 42.1514H18.2091C13.2083 41.1827 9.73301 38.7715 9.73301 34.252C9.73301 28.8215 12.5003 24.2712 17.0237 21.9514H17.0217C16.0207 20.483 15.0013 19.1189 13.9275 18.0986C13.2677 17.4707 12.5864 16.972 11.8774 16.658C10.944 18.5824 9.35086 19.6405 7.68391 19.6405C6.84787 19.6405 5.99442 19.3743 5.19527 18.8179C5.04773 18.7146 4.90122 18.6013 4.75881 18.4791C4.10207 17.9168 3.60721 17.2034 3.26296 16.4245C0.661619 10.5489 4.82848 4.84522 9.56191 4.84621C9.90821 4.84621 10.2576 4.87701 10.608 4.9396C11.361 5.07571 12.069 5.38072 12.7114 5.78309C13.6519 6.37224 14.5279 7.05875 15.3445 7.8317L15.3476 7.83468C15.3476 7.83468 15.3568 7.84263 15.364 7.84958C15.8875 8.34832 16.3854 8.88183 16.8598 9.44913C16.8619 9.45111 16.8639 9.45409 16.866 9.45708C19.2798 12.3472 21.0646 16.1056 22.3238 20.3976H22.3197C22.9405 20.331 23.5778 20.2962 24.2325 20.2962C24.839 20.2962 25.4312 20.328 26.0101 20.3876C27.4957 8.6573 32.6431 1.08778 37.8468 1.08778V1.08678ZM37.8468 0.192627C34.9391 0.192627 32.0621 2.20944 29.7477 5.87052C27.5479 9.35077 25.9855 14.0232 25.2089 19.4279C24.8831 19.41 24.5563 19.4021 24.2315 19.4021C23.8186 19.4021 23.4047 19.416 22.9948 19.4428C21.6588 15.1509 19.8443 11.611 17.5954 8.91263C17.5862 8.90071 17.577 8.88879 17.5668 8.87786C17.0739 8.28871 16.5504 7.72837 16.0105 7.21374C16.0002 7.2048 15.992 7.19585 15.9828 7.1889C15.115 6.36727 14.1826 5.64201 13.2114 5.03299C12.4214 4.53822 11.6018 4.21136 10.777 4.06134C10.3764 3.98882 9.96764 3.95206 9.56191 3.95206C7.0743 3.95206 4.6666 5.30819 3.12362 7.57935C2.27017 8.83514 1.73842 10.3016 1.58679 11.8196C1.41876 13.4887 1.69847 15.1568 2.41565 16.7782C2.8347 17.727 3.41767 18.5248 4.14817 19.1507C4.31108 19.2908 4.48218 19.4229 4.65635 19.5451L4.89815 19.714H4.91249C5.77619 20.2535 6.72902 20.5367 7.68391 20.5367C9.4861 20.5367 11.1346 19.562 12.2339 17.885C12.5505 18.0966 12.8743 18.3569 13.2103 18.6709L13.281 18.7384C14.1581 19.573 14.9982 20.6618 15.7041 21.6573C11.3682 24.2742 8.80989 28.9109 8.80989 34.254C8.80989 36.6722 9.70843 38.6741 11.4819 40.2041C12.0383 40.684 12.6786 41.1142 13.4009 41.4937L13.2892 41.5294C13.1509 41.4887 13.0054 41.4688 12.8569 41.4688C12.4665 41.4688 12.0956 41.6119 11.8108 41.8712C11.5055 42.1504 11.3375 42.5289 11.3375 42.9392V44.1573C9.65207 45.3554 9.08755 47.7826 10.1101 49.4894C10.2002 49.6394 10.3006 49.7815 10.4123 49.9156C10.2463 49.9951 10.0896 50.0915 9.94305 50.2028C8.48101 51.3175 8.00767 53.3571 8.73612 55.3978C9.0814 56.3635 9.65207 57.205 10.3867 57.8319C11.2258 58.5472 12.2206 58.9248 13.2657 58.9248H30.4546C31.223 58.9248 31.9597 58.6933 32.5652 58.2661H32.5949L32.8582 58.0356C32.9986 57.9124 33.1359 57.7842 33.268 57.6511C34.2578 58.3316 35.1645 58.4936 35.8018 58.4936C36.7157 58.4936 37.6111 58.1627 38.3232 57.5617C38.9758 57.0113 39.4369 56.2741 39.6233 55.4852C39.6817 55.2915 39.7248 55.0988 39.7545 54.906L39.8764 54.3675H39.8006C39.8119 53.683 39.6397 53.0263 39.2893 52.4501L39.0219 52.0099H38.9717C38.2515 51.1526 37.1265 50.622 35.9011 50.5763C35.8765 49.0622 35.5651 47.5243 34.9831 46.0708C34.4422 44.7176 33.684 43.4867 32.7568 42.4455C37.2761 40.9989 39.651 38.1903 39.651 34.256C39.651 29.0947 37.1747 24.5077 32.9904 21.8411C34.5549 17.2154 36.8437 14.1355 40.3487 11.912L40.3631 11.9031L40.3774 11.8932C42.949 10.1227 44.1457 7.33792 43.4992 4.62466C42.949 2.31476 41.1796 0.650633 38.8826 0.283036C38.5404 0.226406 38.191 0.196601 37.8447 0.196601L37.8468 0.192627Z" fill="white"/>
<path d="M38.731 34.2518C38.731 40.4294 32.2394 42.6688 24.2325 42.6688C16.2256 42.6688 9.73407 40.4304 9.73407 34.2518C9.73407 26.3385 15.6078 20.296 24.2325 20.296C32.8572 20.296 38.731 26.4826 38.731 34.2518Z" stroke="black" stroke-width="0.874286" stroke-miterlimit="10"/>
<path d="M31.8685 22.5344C31.8316 22.5344 31.7927 22.5295 31.7558 22.5185C31.5499 22.4579 31.4331 22.2473 31.4956 22.0476C33.1594 16.7264 35.6635 13.2352 39.6131 10.7276C42.1561 8.97405 42.6212 6.50718 42.2093 4.78245C41.779 2.9852 40.4174 1.69364 38.6552 1.41248C37.188 1.16708 35.7055 1.57541 34.2455 2.62555C32.4218 3.93598 30.7415 6.19224 29.385 9.14891C27.9506 12.2755 26.9138 16.1372 26.3841 20.3169C26.3585 20.5236 26.1628 20.6716 25.9486 20.6458C25.7345 20.6209 25.5818 20.4322 25.6085 20.2255C26.6832 11.73 29.7374 4.92452 33.7783 2.01951C35.394 0.858099 37.1245 0.391151 38.7842 0.668339C40.862 1.00017 42.4665 2.51129 42.9695 4.61256C43.4398 6.57672 42.9224 9.37742 40.0598 11.3475C40.0557 11.3505 40.0516 11.3525 40.0475 11.3555C36.2577 13.7588 33.851 17.1238 32.2425 22.2662C32.1912 22.4291 32.0365 22.5344 31.8695 22.5344H31.8685Z" fill="black"/>
<path d="M17.0238 22.2085C16.8967 22.2085 16.7727 22.1489 16.698 22.0386C15.3578 20.0725 13.7698 17.9692 12.0526 17.0453C11.2299 18.5276 9.96561 19.528 8.53738 19.8132C7.14092 20.0923 5.70757 19.6761 4.50064 18.6408C3.82956 18.0656 3.2927 17.3294 2.90541 16.4521C1.48743 13.2501 1.92696 9.66748 4.05086 7.10225C5.78851 5.00396 8.2669 4.01145 10.6818 4.4476C11.4389 4.5847 12.194 4.88574 12.9255 5.34474C17.3373 8.10867 20.6261 13.0981 22.7008 20.1738C22.7602 20.3745 22.6393 20.5831 22.4314 20.6398C22.2244 20.6974 22.0082 20.5802 21.9488 20.3795C19.9273 13.4855 16.7482 8.6402 12.5004 5.97859C11.8549 5.57424 11.1941 5.30897 10.5373 5.18975C8.41034 4.80526 6.2137 5.69644 4.65945 7.57416C2.71587 9.92182 2.31834 13.2093 3.6226 16.1541C3.9648 16.928 4.43405 17.5738 5.01804 18.0745C6.03645 18.9468 7.23005 19.3015 8.37858 19.072C9.66542 18.8147 10.8057 17.8421 11.5127 16.4005C11.5731 16.2455 11.734 16.1451 11.9071 16.1591C11.9563 16.163 12.0034 16.1749 12.0465 16.1948C14.0638 17.089 15.7871 19.3313 17.3485 21.6213C17.4674 21.7952 17.4172 22.0297 17.2379 22.1439C17.1713 22.1867 17.0975 22.2065 17.0238 22.2065V22.2085Z" fill="black"/>
<path d="M29.8163 20.2147C29.5551 20.2147 29.3399 20.1581 29.1955 20.1064C28.2344 19.7577 27.5941 18.638 27.7683 17.6087C27.7683 17.6087 27.7683 17.6067 27.7683 17.6058C28.7641 12.0044 30.9608 7.80382 34.2967 5.12234C35.1297 4.45272 36.1921 4.16361 37.2116 4.32953C38.3293 4.51134 39.1592 5.19884 39.4871 6.2162C39.8856 7.45013 39.4697 8.9235 38.4523 9.88124C38.4472 9.88621 38.441 9.89118 38.4359 9.89614C35.2967 12.4743 33.2701 16.0241 31.8562 18.8288C31.8511 18.8387 31.846 18.8476 31.8398 18.8576C31.1349 19.9584 30.3727 20.2157 29.8153 20.2157L29.8163 20.2147ZM28.4291 17.715C28.3072 18.4413 28.7651 19.2589 29.4311 19.5004C30.0612 19.7289 30.7118 19.3841 31.264 18.5297C32.7056 15.6734 34.7721 12.061 37.9953 9.41032C38.8304 8.61849 39.1746 7.41436 38.8498 6.40993C38.5957 5.62208 37.9749 5.11042 37.1019 4.96835C36.2751 4.83423 35.4094 5.07168 34.726 5.62109C31.5171 8.20122 29.3983 12.2696 28.4301 17.715H28.4291Z" fill="black"/>
<path d="M12.2278 8.93537C12.5382 9.53843 12.7718 10.1812 12.9235 10.8409C13.0772 11.5006 13.1612 12.1782 13.1673 12.8587C13.1735 13.5393 13.1171 14.2248 12.9665 14.8974C12.947 14.9809 12.9235 15.0643 12.9009 15.1478C12.8763 15.2302 12.86 15.3147 12.8292 15.3961C12.7708 15.5591 12.7175 15.723 12.6561 15.8849L12.4553 16.3648L12.2247 16.8328C12.1315 17.0205 11.8989 17.1 11.7043 17.0106C11.5096 16.9212 11.4276 16.6956 11.5198 16.5079L11.5311 16.484L11.7401 16.0608C11.8026 15.9157 11.861 15.7697 11.9204 15.6237C11.9747 15.4756 12.0198 15.3246 12.069 15.1756C12.1161 15.0256 12.1489 14.8706 12.195 14.7196C12.3579 14.1105 12.4675 13.4817 12.5014 12.8458C12.5352 12.21 12.5106 11.5672 12.4163 10.9333C12.319 10.2995 12.1653 9.66957 11.9215 9.06949C11.8877 8.98505 11.9297 8.89066 12.0167 8.85788C12.0977 8.82708 12.1899 8.86284 12.2278 8.93636V8.93537Z" fill="black"/>
<path d="M18.122 20.4661C17.9509 20.4661 17.785 20.4343 17.6354 20.3876C17.2061 20.2544 16.8198 19.9723 16.5483 19.5918C15.407 17.9902 13.9736 16.7355 12.2903 15.8612L12.6069 15.2909C14.3845 16.2139 15.8967 17.5372 17.0995 19.2242C17.287 19.4875 17.5493 19.6812 17.8393 19.7706C18.1538 19.868 18.4847 19.8729 18.7696 19.256C19.0042 18.7473 19.0144 18.1403 18.7952 17.5899C17.6969 14.8269 15.8895 13.0277 12.5587 11.3795L12.863 10.8032C16.3557 12.5309 18.2552 14.4305 19.4191 17.3574C19.7009 18.0667 19.6865 18.8546 19.3802 19.5202C19.0421 20.2525 18.5636 20.4661 18.122 20.4661Z" fill="black"/>
<path d="M28.4619 35.3777C28.3707 35.3588 28.2815 35.4144 28.2621 35.5029V35.5088C28.2057 35.7572 28.1248 35.9917 27.9977 36.1884C27.8738 36.3861 27.7098 36.546 27.5183 36.6563C27.1371 36.8858 26.6453 36.9037 26.1986 36.7994C25.9742 36.7467 25.755 36.6682 25.5532 36.558C25.3513 36.4487 25.172 36.3026 25.0276 36.1317C24.8165 35.8814 24.6895 35.5784 24.6444 35.2545C25.6874 35.1303 26.4783 34.5501 26.4783 33.9599C26.4783 33.2933 25.4732 32.9803 24.2335 32.9803C22.9938 32.9803 21.9887 33.2933 21.9887 33.9599C21.9887 34.5511 22.7797 35.1313 23.8247 35.2545C23.7786 35.5774 23.6526 35.8804 23.4416 36.1317C23.2971 36.3016 23.1178 36.4477 22.916 36.558C22.7141 36.6682 22.4949 36.7477 22.2705 36.7994C21.8248 36.9037 21.333 36.8848 20.9509 36.6563C20.7582 36.546 20.5953 36.3861 20.4714 36.1884C20.3443 35.9917 20.2634 35.7572 20.2091 35.5088V35.5029C20.1917 35.4313 20.1281 35.3777 20.0493 35.3747C19.956 35.3717 19.8782 35.4413 19.8751 35.5317C19.8648 35.8168 19.9048 36.1129 20.0165 36.399C20.1292 36.6841 20.3238 36.9524 20.581 37.1541C20.8177 37.3399 21.0994 37.469 21.3924 37.5356C21.5267 39.4014 22.8832 40.375 24.2253 40.375C25.5675 40.375 26.9209 39.4024 27.0572 37.5405C27.3574 37.475 27.6473 37.3448 27.8902 37.1541C28.1473 36.9514 28.343 36.6841 28.4547 36.399C28.5664 36.1129 28.6063 35.8158 28.5961 35.5317C28.593 35.4591 28.5408 35.3946 28.4639 35.3787L28.4619 35.3777ZM23.5358 33.648C23.5358 33.5675 23.8483 33.5019 24.2335 33.5019C24.6188 33.5019 24.9313 33.5675 24.9313 33.648C24.9313 33.7285 24.6188 33.794 24.2335 33.794C23.8483 33.794 23.5358 33.7285 23.5358 33.648ZM24.2243 39.6209C23.6229 39.6209 22.9948 39.3447 22.5912 38.7645C23.2643 38.0254 25.1485 37.9807 25.8626 38.7566C25.4599 39.3428 24.8288 39.6219 24.2243 39.6219V39.6209Z" fill="black"/>
<path d="M30.9054 26.2103C28.7662 26.2103 26.9394 27.5287 26.2468 29.3697C25.715 28.868 25.002 28.5808 24.2356 28.5808C23.5215 28.5808 22.8401 28.8382 22.3166 29.2892C21.6015 27.49 19.7982 26.2103 17.6897 26.2103C14.9572 26.2103 12.7339 28.3613 12.7339 31.005C12.7339 33.6487 14.9572 35.7997 17.6897 35.7997C20.4222 35.7997 22.6455 33.6487 22.6455 31.005C22.6455 30.6742 22.6106 30.3523 22.5451 30.0403C22.958 29.5515 23.5788 29.2624 24.2356 29.2624C24.9569 29.2624 25.6167 29.5992 26.0265 30.1675C25.9763 30.4397 25.9497 30.7189 25.9497 31.005C25.9497 33.6487 28.1729 35.7997 30.9054 35.7997C33.6379 35.7997 35.8612 33.6487 35.8612 31.005C35.8612 28.3613 33.6379 26.2103 30.9054 26.2103ZM17.6897 35.1191C15.3455 35.1191 13.4378 33.2732 13.4378 31.006C13.4378 28.7388 15.3455 26.8929 17.6897 26.8929C20.0339 26.8929 21.9406 28.7378 21.9406 31.006C21.9406 33.2742 20.0339 35.1191 17.6897 35.1191ZM30.9054 35.1191C28.5613 35.1191 26.6535 33.2732 26.6535 31.006C26.6535 28.7388 28.5613 26.8929 30.9054 26.8929C33.2496 26.8929 35.1563 28.7378 35.1563 31.006C35.1563 33.2742 33.2496 35.1191 30.9054 35.1191Z" fill="black"/>
<path d="M38.4389 52.1926C37.7084 51.4177 36.5927 51.0193 35.437 51.0968C35.4411 50.9547 35.4442 50.8117 35.4421 50.6666C35.4052 47.2549 33.8285 43.8283 31.3265 41.725C31.1636 41.5879 30.9177 41.6048 30.7763 41.7628C30.6349 41.9198 30.6523 42.1582 30.8152 42.2953C33.1533 44.2605 34.6276 47.4715 34.6624 50.6746C34.6645 50.9021 34.6573 51.1256 34.6461 51.3481C34.601 51.4246 34.5815 51.5161 34.601 51.6094C34.6061 51.6353 34.6143 51.6611 34.6256 51.6849C34.4832 53.358 33.935 54.8503 33.0334 56.0445C32.9791 56.0633 32.9289 56.0931 32.8859 56.1349C32.8213 56.1984 32.7875 56.2799 32.7793 56.3624C32.5549 56.6276 32.3131 56.877 32.0509 57.1075C31.639 57.4682 31.098 57.6678 30.5273 57.6678H25.0767C24.5491 57.3857 24.1065 56.9764 23.7981 56.4786C23.6782 56.2879 23.5778 56.0842 23.4958 55.8736C23.5092 55.8169 23.5112 55.7573 23.4958 55.6967C23.4753 55.6202 23.4333 55.5556 23.377 55.507C23.3104 55.2636 23.2653 55.0132 23.2448 54.7599C23.1956 54.1498 23.2694 53.5239 23.4713 52.9457C23.5717 52.6576 23.7007 52.3784 23.8667 52.1281C23.9487 51.9979 24.0348 51.8936 24.1331 51.7883C24.2304 51.684 24.3411 51.5935 24.4589 51.5131C24.6935 51.3501 24.964 51.2438 25.2417 51.1952C25.381 51.1723 25.5224 51.1673 25.6617 51.1763C25.8011 51.1852 25.9414 51.216 26.0757 51.2548C26.6177 51.4187 27.0449 51.8449 27.3225 52.3595C27.4629 52.6169 27.5695 52.899 27.6484 53.1911C27.6504 53.1991 27.6525 53.207 27.6535 53.215V53.7346C27.6535 53.8458 27.7047 53.9452 27.7836 54.0137C27.7856 54.0415 27.7887 54.0694 27.7918 54.0982C27.8348 54.7201 27.7672 55.3579 27.6432 56.0057C27.633 56.0594 27.6586 56.115 27.7098 56.1418C27.7733 56.1756 27.8533 56.1537 27.8891 56.0921C28.2303 55.4921 28.4362 54.8085 28.4823 54.1012C28.4946 53.9243 28.4967 53.7465 28.4844 53.5676C28.4772 53.4216 28.4598 53.2756 28.4362 53.1295V52.9338C28.4475 52.9189 28.4598 52.904 28.469 52.8881C28.6186 52.6258 28.8184 52.3893 29.0592 52.1926C29.2999 51.9969 29.5817 51.8419 29.887 51.7396C30.4966 51.5339 31.1995 51.5409 31.8203 51.7893C31.8982 51.8201 31.9914 51.7903 32.0324 51.7167C32.0765 51.6383 32.0468 51.5399 31.9648 51.4972C31.3009 51.1485 30.4925 51.0481 29.7343 51.22C29.3553 51.3054 28.9874 51.4574 28.6586 51.673C28.5817 51.7227 28.508 51.7773 28.4352 51.834V50.2762C28.6729 50.1331 28.9065 49.9851 29.1258 49.8201C29.386 49.6324 29.6288 49.4267 29.8624 49.2121C30.096 48.9985 30.3132 48.77 30.5181 48.5316C30.723 48.2921 30.9126 48.0497 31.0847 47.7755C31.1277 47.707 31.1124 47.6155 31.0458 47.5639C30.973 47.5083 30.8685 47.5212 30.8111 47.5907L30.805 47.5977C30.6247 47.8192 30.4105 48.0368 30.1923 48.2365C29.972 48.4372 29.7425 48.6269 29.5007 48.8008C29.26 48.9747 29.012 49.1386 28.7528 49.2827C28.5336 49.4108 28.3041 49.5201 28.0746 49.6244C28.0028 49.6195 27.9311 49.6314 27.8656 49.6642C27.4137 49.8927 26.9301 50.0099 26.4691 50.0407C26.5121 50.0039 26.5552 49.9682 26.5941 49.9274C26.7088 49.8092 26.8041 49.6751 26.8779 49.534C26.9137 49.4655 26.8953 49.38 26.8297 49.3323C26.756 49.2777 26.6504 49.2916 26.5941 49.3621V49.3641C26.4302 49.5698 26.214 49.7148 25.9712 49.8082C25.7898 49.8788 25.5951 49.9225 25.3933 49.9513C25.0952 49.8768 24.836 49.7625 24.6403 49.6175C24.5983 49.5867 24.5604 49.5549 24.5245 49.5221C24.7099 49.4664 24.8892 49.3919 25.0562 49.2956C25.3718 49.1147 25.631 48.8594 25.8175 48.5763C25.8605 48.5107 25.8503 48.4233 25.7898 48.3686C25.7212 48.308 25.6156 48.313 25.5521 48.3786C25.3462 48.5971 25.1003 48.763 24.8319 48.8614C24.6423 48.9319 24.4425 48.9677 24.2386 48.9786C24.2294 48.8862 24.2345 48.7899 24.2581 48.6885C24.3104 48.458 24.4548 48.2365 24.6649 48.0626L28.2119 45.1447C28.2897 45.1358 28.3655 45.1059 28.428 45.0523L29.6247 44.027C29.68 43.9803 29.6985 43.9018 29.6657 43.8343C29.6257 43.7528 29.5243 43.718 29.4403 43.7568L28.4916 44.1939C28.4414 43.8879 28.2815 43.6077 28.0326 43.4041C27.7293 43.1567 27.3307 43.0534 26.9394 43.1189L26.5828 43.1785C24.7294 42.6113 19.8454 42.2437 17.9417 43.3614C17.7952 43.2014 17.6354 43.0782 17.4694 42.9808L18.4007 42.4811C18.5893 42.3798 18.6569 42.1503 18.5534 41.9675C18.4489 41.7847 18.2112 41.7191 18.0227 41.8204L16.4797 42.648C16.3567 42.6262 16.2359 42.6083 16.1201 42.5924C15.9777 42.5715 15.8424 42.5526 15.7174 42.5268C15.3763 42.4583 15.1017 42.2446 14.9316 42.0777C14.6826 41.8343 14.3025 41.7459 13.9624 41.8552L13.238 42.0867C12.9624 41.9406 12.6335 41.9277 12.3415 42.0628C11.9963 42.2228 11.7821 42.5526 11.7821 42.9222V44.4145C10.6695 45.0831 9.97891 46.3896 10.0476 47.7427C10.0998 48.7929 10.5977 49.6542 11.4358 50.1877C11.0444 50.2305 10.6664 50.3775 10.3457 50.6219C9.06295 51.6005 8.65825 53.4166 9.31499 55.2487C10.0055 57.1761 11.5854 58.4209 13.3384 58.4209H30.5284C31.2927 58.4209 32.0201 58.1527 32.5765 57.6659C32.8193 57.4532 33.0467 57.2257 33.2609 56.9863C34.0723 57.6361 34.9452 57.9729 35.8058 57.9729C36.1153 57.9729 36.4247 57.9291 36.7279 57.8407C37.8888 57.5029 38.8457 56.5035 39.1121 55.351C39.4707 54.1747 39.2268 53.0242 38.442 52.1916L38.4389 52.1926ZM27.6525 51.3919C27.5602 51.2846 27.4619 51.1822 27.3512 51.0898C27.2016 50.9647 27.0428 50.8474 26.8666 50.753C27.132 50.7143 27.3963 50.6547 27.6514 50.5692V51.3919H27.6525ZM27.5275 43.9823C27.6545 44.0856 27.7272 44.2366 27.7272 44.3966V44.5496L24.1577 47.4874C23.8175 47.7666 23.5819 48.1361 23.4938 48.5266C23.3442 49.1863 23.5829 49.7873 24.1649 50.2175C24.338 50.3457 24.5347 50.452 24.7478 50.5384C24.4835 50.6209 24.2325 50.7411 24.0081 50.8961C23.8452 51.0074 23.6936 51.1326 23.5604 51.2746C23.4272 51.4137 23.3012 51.5727 23.2049 51.7257C23 52.0347 22.8473 52.3675 22.7284 52.7073C22.4918 53.3878 22.4078 54.1081 22.4641 54.8215C22.4836 55.0599 22.5215 55.2973 22.5768 55.5328L19.5677 56.271V45.1278L26.5295 43.9555C26.6279 43.9743 26.7263 43.9555 26.8082 43.9088L27.0705 43.8641C27.2334 43.8362 27.4004 43.88 27.5275 43.9833V43.9823ZM16.6672 45.2282H18.787V56.4786C18.076 56.6495 17.2399 56.6217 16.6672 56.4021V45.2282ZM14.3732 42.6093C14.6191 42.8507 15.0238 43.1607 15.5566 43.267C15.7041 43.2968 15.8557 43.3186 16.0033 43.3395C16.1549 43.3614 16.3004 43.3822 16.4408 43.41C16.4408 43.41 16.4418 43.41 16.4428 43.41C16.8803 43.4965 17.2543 43.6475 17.5206 44.0826C17.5811 44.181 17.6846 44.2486 17.8024 44.2644C17.8208 44.2674 17.8393 44.2684 17.8567 44.2684C17.9551 44.2684 18.0514 44.2317 18.1241 44.1661C19.037 43.3345 22.1516 43.26 24.461 43.5362L18.9007 44.4731H16.3209L13.9777 42.646L14.2042 42.5735C14.2646 42.5536 14.3312 42.5675 14.3732 42.6093ZM12.5598 44.642V42.9242C12.5598 42.8119 12.6407 42.7623 12.6755 42.7454C12.7104 42.7295 12.8015 42.6987 12.8917 42.7692L15.8865 45.104V55.8398L15.2082 55.3162C15.5525 53.1007 14.449 51.364 13.0331 50.5802C13.6222 50.5106 14.1048 50.2056 14.3906 49.7059C14.406 49.685 14.4183 49.6622 14.4275 49.6373C14.4654 49.5648 14.5003 49.4903 14.53 49.4108C14.6806 49.0025 14.7011 48.5345 14.5935 48.0606C14.6181 48.009 14.6294 47.9504 14.6222 47.8898C14.6099 47.7904 14.5525 47.7089 14.4726 47.6573C14.1806 46.8972 13.5484 46.1601 12.5598 45.6722V44.641V44.642ZM10.8231 47.707C10.7791 46.8217 11.1541 45.9395 11.778 45.3672V45.9117C11.778 46.0607 11.8682 46.1958 12.0096 46.2564C12.8487 46.6181 13.363 47.1436 13.6345 47.6762L12.8384 47.7676C12.7626 47.7755 12.7001 47.8341 12.6909 47.9096C12.6796 47.999 12.7462 48.0805 12.8384 48.0904L13.8292 48.2047C13.9111 48.5624 13.8906 48.8972 13.7943 49.1575C13.7913 49.1654 13.7882 49.1724 13.7851 49.1793C13.6519 49.1634 13.5157 49.1376 13.3794 49.1048C13.2554 49.074 13.1304 49.0392 13.0065 48.9985C12.8835 48.9588 12.7575 48.9131 12.6417 48.8664L12.6356 48.8644C12.5639 48.8356 12.4788 48.8574 12.4327 48.922C12.3805 48.9955 12.3989 49.0969 12.4747 49.1475C12.5936 49.228 12.7093 49.2976 12.8313 49.3671C12.9522 49.4356 13.0761 49.5002 13.2042 49.5608C13.2759 49.5946 13.3487 49.6254 13.4235 49.6562C13.1458 49.8519 12.7575 49.8976 12.2923 49.7784C11.4051 49.4227 10.8703 48.6687 10.8221 47.706L10.8231 47.707ZM10.0496 55.0023C9.63465 53.8458 9.58957 52.1598 10.8252 51.216C11.1797 50.9458 11.6428 50.8603 12.0669 50.9885C13.4542 51.4088 14.7062 52.9507 14.4583 55.038C14.405 55.0957 14.3691 55.1682 14.3599 55.2506L14.2267 56.4061C14.2195 56.4707 14.2533 56.5372 14.3169 56.57C14.3999 56.6117 14.5033 56.5809 14.5464 56.5005L14.8261 55.9868L15.9398 56.8462C15.9961 56.9416 16.0924 57.0101 16.2072 57.031C17.0401 57.4185 18.3546 57.4473 19.3607 57.0996L22.8114 56.2531C22.9006 56.4647 23.0051 56.6724 23.128 56.8701C23.3083 57.1612 23.5296 57.4284 23.7817 57.6669H13.3353C11.6151 57.6669 10.4902 56.2312 10.0496 55.0023ZM38.357 55.1493C38.3539 55.1582 38.3519 55.1672 38.3498 55.1761C38.1459 56.0753 37.4031 56.8562 36.5005 57.1184C35.6102 57.3777 34.6409 57.1184 33.7383 56.3892C34.6604 55.1284 35.227 53.5816 35.3909 51.8588C36.3478 51.7664 37.273 52.0744 37.8632 52.7013C38.4707 53.3461 38.6459 54.2154 38.358 55.1493H38.357Z" fill="black"/>
<path d="M18.6333 28.6892C17.411 28.4627 16.1764 29.5109 15.8773 31.0289C15.5771 32.547 16.325 33.9608 17.5473 34.1873C18.7696 34.4138 20.0042 33.3657 20.3033 31.8476C20.6035 30.3295 19.8556 28.9157 18.6333 28.6892ZM17.3946 33.4104C17.1989 33.5107 16.9284 33.3865 16.7901 33.1342C16.6518 32.8818 16.6989 32.5957 16.8946 32.4963C17.0903 32.396 17.3608 32.5192 17.4991 32.7725C17.6374 33.0249 17.5903 33.311 17.3946 33.4114V33.4104ZM19.0062 31.2127C18.6015 31.3161 18.1589 30.9763 18.0175 30.4547C17.8762 29.9331 18.0882 29.4274 18.4929 29.3241C18.8976 29.2208 19.3402 29.5605 19.4816 30.0821C19.623 30.6037 19.4109 31.1094 19.0062 31.2127Z" fill="black"/>
<path d="M32.6103 30.1607C32.2896 30.2729 31.9648 30.4011 31.6656 30.5442C31.3644 30.6882 31.0806 30.8512 30.8194 31.032C30.6852 31.1194 30.5653 31.2207 30.4413 31.3161L30.2692 31.4731C30.2415 31.4999 30.2098 31.5238 30.1831 31.5516L30.1042 31.636C29.8829 31.8526 29.7108 32.1089 29.5417 32.3673L28.9065 31.7433C28.9362 31.7294 28.9557 31.7215 28.9762 31.7135C28.9967 31.7046 29.0172 31.6966 29.0356 31.6897C29.0746 31.6758 29.1135 31.6609 29.1514 31.6489C29.2282 31.6231 29.3041 31.6023 29.3809 31.5814C29.5336 31.5416 29.6883 31.5138 29.844 31.493C30.1544 31.4522 30.47 31.4512 30.7784 31.491C31.0857 31.5317 31.389 31.6052 31.6677 31.7274C31.9505 31.8397 32.2035 32.0056 32.433 32.1844C32.5037 32.2391 32.514 32.3384 32.4576 32.407C32.4166 32.4567 32.35 32.4755 32.2906 32.4606L32.2722 32.4557C32.138 32.4219 32.013 32.3762 31.8839 32.3474C31.7538 32.3206 31.6288 32.2868 31.4986 32.2729C31.2446 32.2301 30.9894 32.2202 30.7395 32.2311C30.4895 32.2391 30.2425 32.2749 30.0028 32.3325C29.9423 32.3454 29.8839 32.3643 29.8245 32.3792L29.6504 32.4338C29.594 32.4537 29.5366 32.4736 29.4823 32.4964C29.4547 32.5073 29.429 32.5193 29.4034 32.5302C29.3901 32.5361 29.3778 32.5411 29.3665 32.5471L29.3409 32.56L29.3317 32.565C29.0981 32.6782 28.8153 32.5868 28.6975 32.3613C28.6258 32.2222 28.635 32.0622 28.7057 31.9351C28.8983 31.5983 29.1145 31.2645 29.4014 30.9912C29.47 30.9207 29.5387 30.8492 29.6176 30.7896L29.8471 30.6028C30.012 30.4935 30.1718 30.3792 30.3491 30.2938C30.6964 30.111 31.0653 29.9789 31.4423 29.9024C31.5376 29.8865 31.6318 29.8676 31.7271 29.8557C31.8224 29.8457 31.9167 29.8328 32.013 29.8298C32.2056 29.8199 32.3921 29.8219 32.5918 29.8487C32.682 29.8606 32.7445 29.9411 32.7322 30.0285C32.724 30.0891 32.681 30.1368 32.6257 30.1567L32.6103 30.1617V30.1607Z" fill="black"/>
</svg>
