<svg width="80" height="108" viewBox="0 0 80 108" fill="none" xmlns="http://www.w3.org/2000/svg">
<path d="M68.855 2.08852C59.0903 0.436118 49.0305 14.3867 46.2401 36.6959C45.2128 36.5886 44.1582 36.5314 43.0799 36.5314C41.9179 36.5314 40.7831 36.594 39.6793 36.7174H39.6866V36.7156C37.4481 28.9919 34.2733 22.2249 29.9839 17.0227C29.9802 17.0173 29.9766 17.012 29.9729 17.0084C29.1296 15.9873 28.2444 15.027 27.3136 14.1292C27.3009 14.1167 27.29 14.1078 27.2845 14.1024L27.279 14.097C25.8274 12.7057 24.27 11.47 22.598 10.4095C21.4559 9.68527 20.1973 9.13625 18.8586 8.89125C9.73322 7.22097 0.837363 18.2137 5.80076 29.5641C6.41276 30.9662 7.2925 32.252 8.46004 33.2624C8.71322 33.4823 8.97368 33.6862 9.23597 33.8722C13.4854 36.8712 18.6236 35.1848 21.1153 29.9844C22.3776 30.5495 23.587 31.4454 24.76 32.5757C26.667 34.414 28.4794 36.8676 30.2607 39.5125H30.2644C22.2209 43.6882 17.3031 51.8769 17.3031 61.6536C17.3031 69.7904 23.4814 74.1289 32.3718 75.8725H32.3699L29.4046 77.4837C28.8564 77.3693 28.299 77.3192 27.7945 77.2155C27.0131 77.0581 26.4084 76.5788 26.0441 76.2194C25.7818 75.9583 25.3884 75.8725 25.0332 75.9869L23.5178 76.4769C22.8256 75.9315 21.7965 76.4143 21.7965 77.2834V80.3629C21.5889 80.4684 21.3922 80.5865 21.2046 80.7188C18.8349 82.364 17.9734 85.8673 19.3923 88.2655C19.895 89.1167 20.6836 89.8284 21.7965 90.2702C21.9787 90.3202 22.1572 90.356 22.3266 90.381V91.4093C22.0643 91.2823 21.8002 91.1804 21.5361 91.0999C20.558 90.7995 19.4943 91.0034 18.691 91.6239C14.1046 95.1666 17.5271 104.45 23.5834 104.45H54.1415C55.3108 104.45 56.4492 104.037 57.3162 103.264C57.9209 102.728 58.4674 102.143 58.9555 101.519C63.4981 105.846 68.0936 102.863 68.8531 99.4639C69.3486 97.8365 69.1264 96.3719 68.436 95.2202C67.2831 93.2996 64.8223 92.248 62.1904 92.7649L62.1321 92.9258C62.6202 86.6864 60.0775 79.8157 55.1141 75.5899H55.1105C63.285 73.6836 68.8568 69.3809 68.8568 61.6536C68.8568 52.383 64.2668 44.366 56.7079 40.0132C59.1704 32.0803 63.0027 25.1202 70.8403 20.0879C79.2007 14.2616 76.5742 3.33497 68.8568 2.08852H68.855Z" fill="white"/>
<path d="M67.2832 1.95616C67.8078 1.95616 68.3323 2.00087 68.8551 2.0885C76.5706 3.33495 79.199 14.2597 70.8386 20.0879C63.001 25.1202 59.1687 32.0803 56.7062 40.0132C64.2651 44.366 68.8551 52.383 68.8551 61.6536C68.8551 69.3791 63.2833 73.6818 55.1088 75.5899H55.1124C60.0776 79.8157 62.6203 86.6864 62.1304 92.9258L62.1905 92.7648C62.6422 92.6754 63.0866 92.6343 63.5219 92.6343C65.6275 92.6343 67.4817 93.6286 68.4361 95.2202C69.1265 96.3718 69.3487 97.8365 68.8533 99.4639C68.3633 101.655 66.2814 103.672 63.6476 103.672C62.1941 103.672 60.5712 103.057 58.9556 101.519C58.4675 102.143 57.921 102.728 57.3163 103.264C56.4493 104.035 55.3128 104.45 54.1416 104.45H23.5835C17.529 104.45 14.1066 95.1665 18.6911 91.6239C19.2485 91.1929 19.9315 90.964 20.6237 90.964C20.9297 90.964 21.2357 91.0087 21.5362 91.0999C21.8003 91.1804 22.0662 91.2841 22.3267 91.4093V90.381C22.1573 90.356 21.9788 90.3202 21.7967 90.2701C20.6838 89.8284 19.8951 89.1167 19.3924 88.2654C17.9735 85.8673 18.835 82.3658 21.2047 80.7188C21.3923 80.5864 21.589 80.4684 21.7967 80.3629V77.2834C21.7967 76.6682 22.3121 76.2462 22.8604 76.2462C23.0862 76.2462 23.3157 76.3177 23.5179 76.4769L25.0333 75.9869C25.1353 75.9547 25.2428 75.9368 25.3484 75.9368C25.6053 75.9368 25.8584 76.0334 26.0442 76.2194C26.4067 76.5788 27.0114 77.0581 27.7946 77.2155C28.2992 77.3192 28.8583 77.3693 29.4048 77.4837L32.37 75.8724H32.3719C23.4815 74.1288 17.3032 69.7886 17.3032 61.6536C17.3032 51.8787 22.2229 43.6882 30.2645 39.5125H30.2608C28.4813 36.8694 26.669 34.414 24.7601 32.5774C23.5871 31.4472 22.3759 30.5495 21.1154 29.9844C19.4561 33.4483 16.6238 35.3529 13.6603 35.3529C12.174 35.3529 10.6568 34.8736 9.23609 33.8722C8.9738 33.6862 8.71333 33.4823 8.46016 33.2623C7.29262 32.2502 6.41287 30.9662 5.80087 29.5641C1.17627 18.988 8.58401 8.72134 16.999 8.72313C17.6147 8.72313 18.2358 8.77857 18.8587 8.89123C20.1974 9.13623 21.456 9.68524 22.5981 10.4095C24.2702 11.47 25.8275 12.7057 27.2792 14.097L27.2846 14.1024C27.2846 14.1024 27.301 14.1167 27.3138 14.1292C28.2445 15.0269 29.1297 15.9873 29.973 17.0084C29.9767 17.012 29.9803 17.0173 29.984 17.0227C34.2753 22.2249 37.4482 28.9901 39.6867 36.7156H39.6794C40.7832 36.5958 41.9162 36.5332 43.08 36.5332C44.1583 36.5332 45.2111 36.5904 46.2402 36.6977C48.8813 15.5831 58.0322 1.95795 67.2832 1.95795V1.95616ZM67.2832 0.34668C62.114 0.34668 56.9994 3.97695 52.8848 10.5669C48.9742 16.8313 46.1965 25.2418 44.8159 34.9702C44.2367 34.938 43.6556 34.9237 43.0782 34.9237C42.3442 34.9237 41.6083 34.9487 40.8798 34.997C38.5046 27.2715 35.2789 20.8997 31.2808 16.0427C31.2644 16.0212 31.248 15.9998 31.2298 15.9801C30.3537 14.9196 29.423 13.911 28.4631 12.9847C28.4449 12.9686 28.4303 12.9525 28.4139 12.94C26.8712 11.461 25.2137 10.1556 23.4869 9.05933C22.0826 8.16875 20.6255 7.5804 19.1592 7.31036C18.447 7.17982 17.7203 7.11365 16.999 7.11365C12.5766 7.11365 8.29623 9.5547 5.55316 13.6428C4.03591 15.9032 3.09059 18.5427 2.82101 21.2753C2.5223 24.2797 3.01955 27.2822 4.29455 30.2008C5.03951 31.9086 6.07591 33.3446 7.37459 34.4712C7.66419 34.7234 7.96837 34.9612 8.27801 35.1812L8.70787 35.4852H8.73337C10.2688 36.4563 11.9628 36.9659 13.6603 36.9659C16.8642 36.9659 19.7949 35.2116 21.7493 32.1929C22.3121 32.5738 22.8877 33.0424 23.4851 33.6075L23.6108 33.7291C25.1699 35.2313 26.6635 37.1913 27.9185 38.9832C20.2102 43.6936 15.6621 52.0396 15.6621 61.6572C15.6621 66.0099 17.2595 69.6134 20.4124 72.3674C21.4014 73.2311 22.5398 74.0054 23.8239 74.6886L23.6254 74.753C23.3795 74.6796 23.1208 74.6439 22.8567 74.6439C22.1628 74.6439 21.5034 74.9014 20.997 75.3681C20.4543 75.8707 20.1555 76.552 20.1555 77.2906V79.483C17.1593 81.6397 16.1557 86.0086 17.9735 89.0809C18.1338 89.351 18.3123 89.6067 18.5108 89.8481C18.2157 89.9912 17.937 90.1646 17.6766 90.3649C15.0774 92.3714 14.2359 96.0428 15.5309 99.716C16.1448 101.454 17.1593 102.969 18.4653 104.097C19.957 105.385 21.7256 106.065 23.5835 106.065H54.1416C55.5077 106.065 56.8173 105.648 57.8937 104.879H57.9465L58.4146 104.464C58.6642 104.242 58.9083 104.012 59.1432 103.772C60.9027 104.997 62.5147 105.288 63.6476 105.288C65.2723 105.288 66.8643 104.693 68.1301 103.611C69.2904 102.62 70.11 101.293 70.4415 99.8734C70.5454 99.5247 70.6219 99.1777 70.6747 98.8308L70.8914 97.8615H70.7566C70.7767 96.6294 70.4707 95.4473 69.8478 94.4101L69.3724 93.6179H69.2831C68.0026 92.0745 66.0027 91.1196 63.8243 91.0373C63.7806 88.3119 63.2269 85.5436 62.1923 82.9273C61.2306 80.4917 59.8827 78.2759 58.2343 76.4018C66.2686 73.798 70.4907 68.7424 70.4907 61.6607C70.4907 52.3705 66.0883 44.1138 58.6496 39.314C61.4309 30.9876 65.5 25.4438 71.7311 21.4416L71.7566 21.4255L71.7821 21.4076C76.3539 18.2209 78.4813 13.2082 77.332 8.32434C76.3539 4.16651 73.2083 1.17109 69.1246 0.509416C68.5163 0.407482 67.8952 0.353833 67.2795 0.353833L67.2832 0.34668Z" fill="white"/>
<path d="M68.855 61.6534C68.855 72.7731 57.3144 76.804 43.08 76.804C28.8455 76.804 17.3049 72.7749 17.3049 61.6534C17.3049 47.4095 27.7472 36.533 43.08 36.533C58.4128 36.533 68.855 47.6688 68.855 61.6534Z" stroke="black" stroke-width="0.874286" stroke-miterlimit="10"/>
<path d="M56.655 40.562C56.5895 40.562 56.5203 40.5531 56.4547 40.5334C56.0886 40.4243 55.8809 40.0452 55.992 39.6858C58.95 30.1076 63.4016 23.8234 70.4232 19.3097C74.944 16.1534 75.7709 11.713 75.0387 8.60848C74.2737 5.37343 71.853 3.04862 68.7202 2.54253C66.1119 2.10082 63.4763 2.83581 60.8808 4.72606C57.6386 7.08484 54.6515 11.1461 52.2399 16.4681C49.6899 22.0959 47.8466 29.0471 46.9049 36.5705C46.8594 36.9425 46.5115 37.209 46.1308 37.1625C45.7502 37.1177 45.4788 36.778 45.5261 36.406C47.4368 21.1141 52.8665 8.86421 60.0502 3.63519C62.9226 1.54465 65.999 0.704144 68.9497 1.20308C72.6435 1.80038 75.4959 4.5204 76.3902 8.30268C77.2263 11.8382 76.3064 16.8794 71.2174 20.4256C71.2101 20.431 71.2028 20.4346 71.1955 20.44C64.4581 24.7659 60.1795 30.8229 57.3199 40.0792C57.2288 40.3725 56.9538 40.562 56.6569 40.562H56.655Z" fill="black"/>
<path d="M30.2645 39.9754C30.0386 39.9754 29.8182 39.8681 29.6853 39.6696C27.3028 36.1305 24.4796 32.3447 21.4269 30.6815C19.9643 33.3497 17.7167 35.1505 15.1776 35.6638C12.695 36.1663 10.1468 35.417 8.00117 33.5535C6.80814 32.5181 5.85371 31.193 5.16521 29.6139C2.64435 23.8502 3.42574 17.4015 7.20156 12.7841C10.2907 9.00718 14.6967 7.22066 18.9898 8.00573C20.3359 8.25251 21.6783 8.79437 22.9788 9.62057C30.8218 14.5957 36.6686 23.5766 40.357 36.3129C40.4627 36.6742 40.2477 37.0497 39.878 37.1516C39.5101 37.2554 39.1257 37.0443 39.0201 36.6831C35.4264 24.274 29.7745 15.5524 22.2229 10.7615C21.0754 10.0337 19.9006 9.55619 18.733 9.3416C14.9517 8.64952 11.0466 10.2536 8.28349 13.6335C4.82824 17.8593 4.12153 23.7768 6.44021 29.0774C7.04856 30.4705 7.88278 31.6329 8.92099 32.5342C10.7315 34.1043 12.8535 34.7428 14.8953 34.3297C17.183 33.8665 19.2102 32.1157 20.467 29.5209C20.5745 29.2419 20.8605 29.0613 21.1683 29.0863C21.2557 29.0935 21.3395 29.115 21.416 29.1507C25.0024 30.7602 28.066 34.7964 30.8419 38.9185C31.0532 39.2314 30.9639 39.6535 30.6452 39.8591C30.5268 39.936 30.3956 39.9718 30.2645 39.9718V39.9754Z" fill="black"/>
<path d="M53.0068 36.3864C52.5423 36.3864 52.1598 36.2845 51.903 36.1915C50.1945 35.5638 49.0561 33.5483 49.3657 31.6956C49.3657 31.6956 49.3657 31.6921 49.3657 31.6903C51.1362 21.6078 55.0413 14.0468 60.9719 9.22015C62.4527 8.01482 64.3415 7.49443 66.1538 7.79307C68.141 8.12034 69.6164 9.35785 70.1992 11.1891C70.9078 13.4102 70.1683 16.0622 68.3596 17.7862C68.3505 17.7951 68.3396 17.804 68.3304 17.813C62.7496 22.4537 59.1468 28.8433 56.6332 33.8917C56.6241 33.9096 56.615 33.9257 56.6041 33.9436C55.3509 35.925 53.9958 36.3882 53.0049 36.3882L53.0068 36.3864ZM50.5405 31.887C50.3238 33.1943 51.138 34.666 52.3219 35.1006C53.4421 35.5119 54.5987 34.8914 55.5804 33.3534C58.1432 28.212 61.817 21.7097 67.5472 16.9385C69.0317 15.5132 69.6437 13.3458 69.0663 11.5378C68.6146 10.1197 67.5108 9.19869 65.9589 8.94296C64.489 8.70154 62.9499 9.12894 61.735 10.1179C56.0303 14.7621 52.2636 22.0853 50.5424 31.887H50.5405Z" fill="black"/>
<path d="M21.7382 16.0837C22.2901 17.1692 22.7054 18.3263 22.975 19.5137C23.2482 20.7012 23.3976 21.9208 23.4085 23.1458C23.4194 24.3708 23.3192 25.6047 23.0515 26.8154C23.0169 26.9656 22.975 27.1158 22.9349 27.2661C22.8912 27.4145 22.8621 27.5665 22.8074 27.7131C22.7036 28.0064 22.6089 28.3015 22.4996 28.593L22.1426 29.4567L21.7328 30.299C21.567 30.637 21.1536 30.7801 20.8075 30.6191C20.4614 30.4582 20.3157 30.0522 20.4796 29.7143L20.4997 29.6713L20.8712 28.9095C20.9823 28.6484 21.0862 28.3855 21.1918 28.1227C21.2883 27.8562 21.3685 27.5844 21.4559 27.3161C21.5397 27.0461 21.598 26.7671 21.6799 26.4953C21.9696 25.3991 22.1644 24.2671 22.2246 23.1225C22.2847 21.978 22.2409 20.821 22.0734 19.68C21.9003 18.5391 21.6271 17.4053 21.1936 16.3252C21.1335 16.1732 21.2082 16.0033 21.363 15.9442C21.5069 15.8888 21.6708 15.9532 21.7382 16.0855V16.0837Z" fill="black"/>
<path d="M32.2169 36.8389C31.9128 36.8389 31.6177 36.7817 31.3518 36.6976C30.5886 36.458 29.9019 35.9501 29.4192 35.2652C27.3902 32.3824 24.842 30.1238 21.8494 28.5501L22.4122 27.5236C25.5724 29.1849 28.2608 31.567 30.3992 34.6035C30.7325 35.0774 31.1988 35.4262 31.7142 35.5871C32.2734 35.7624 32.8617 35.7713 33.3681 34.6608C33.7852 33.7451 33.8034 32.6525 33.4136 31.6618C31.461 26.6885 28.248 23.4498 22.3266 20.483L22.8675 19.4458C29.0768 22.5557 32.4537 25.9749 34.5229 31.2433C35.0238 32.5201 34.9983 33.9383 34.4536 35.1364C33.8526 36.4544 33.002 36.8389 32.2169 36.8389Z" fill="black"/>
<path d="M50.599 63.6797C50.4368 63.6457 50.2784 63.7459 50.2438 63.905V63.9158C50.1436 64.3628 49.9997 64.7849 49.7738 65.139C49.5535 65.4948 49.262 65.7828 48.9214 65.9813C48.2438 66.3944 47.3696 66.4265 46.5754 66.2388C46.1765 66.144 45.7867 66.0027 45.4279 65.8042C45.0691 65.6075 44.7503 65.3446 44.4935 65.037C44.1183 64.5864 43.8924 64.0409 43.8123 63.458C45.6665 63.2344 47.0727 62.19 47.0727 61.1278C47.0727 59.9278 45.2858 59.3645 43.0819 59.3645C40.878 59.3645 39.0912 59.9278 39.0912 61.1278C39.0912 62.1918 40.4973 63.2362 42.3552 63.458C42.2732 64.0392 42.0492 64.5846 41.674 65.037C41.4171 65.3428 41.0984 65.6057 40.7396 65.8042C40.3807 66.0027 39.991 66.1458 39.5921 66.2388C38.7997 66.4265 37.9255 66.3926 37.2461 65.9813C36.9036 65.7828 36.614 65.4948 36.3936 65.139C36.1678 64.7849 36.0239 64.3628 35.9273 63.9158V63.905C35.8964 63.7763 35.7834 63.6797 35.6432 63.6743C35.4774 63.669 35.339 63.7942 35.3336 63.9569C35.3153 64.4701 35.3864 65.003 35.5849 65.5181C35.7853 66.0313 36.1313 66.5142 36.5885 66.8772C37.0093 67.2116 37.5102 67.4441 38.0311 67.5639C38.2697 70.9224 40.6813 72.6749 43.0673 72.6749C45.4534 72.6749 47.8595 70.9242 48.1018 67.5729C48.6355 67.4548 49.1509 67.2206 49.5826 66.8772C50.0398 66.5124 50.3877 66.0313 50.5862 65.5181C50.7847 65.003 50.8558 64.4683 50.8376 63.9569C50.8321 63.8263 50.7392 63.7101 50.6026 63.6815L50.599 63.6797ZM41.8415 60.5662C41.8415 60.4214 42.3971 60.3034 43.0819 60.3034C43.7668 60.3034 44.3223 60.4214 44.3223 60.5662C44.3223 60.7111 43.7668 60.8291 43.0819 60.8291C42.3971 60.8291 41.8415 60.7111 41.8415 60.5662ZM43.0655 71.3176C41.9963 71.3176 40.8798 70.8204 40.1622 69.7761C41.3588 68.4455 44.7085 68.3651 45.978 69.7617C45.2622 70.8169 44.1402 71.3194 43.0655 71.3194V71.3176Z" fill="black"/>
<path d="M54.943 47.1787C51.1399 47.1787 47.8923 49.5518 46.661 52.8655C45.7157 51.9624 44.448 51.4456 43.0855 51.4456C41.816 51.4456 40.6048 51.9088 39.674 52.7207C38.4026 49.4821 35.1969 47.1787 31.4484 47.1787C26.5907 47.1787 22.6382 51.0504 22.6382 55.8091C22.6382 60.5678 26.5907 64.4395 31.4484 64.4395C36.3062 64.4395 40.2587 60.5678 40.2587 55.8091C40.2587 55.2136 40.1968 54.6342 40.0802 54.0726C40.8142 53.1928 41.918 52.6724 43.0855 52.6724C44.3678 52.6724 45.5408 53.2786 46.2694 54.3016C46.1802 54.7916 46.1328 55.2941 46.1328 55.8091C46.1328 60.5678 50.0853 64.4395 54.943 64.4395C59.8008 64.4395 63.7533 60.5678 63.7533 55.8091C63.7533 51.0504 59.8008 47.1787 54.943 47.1787ZM31.4484 63.2145C27.281 63.2145 23.8895 59.8918 23.8895 55.8109C23.8895 51.73 27.281 48.4073 31.4484 48.4073C35.6159 48.4073 39.0055 51.7282 39.0055 55.8109C39.0055 59.8936 35.6159 63.2145 31.4484 63.2145ZM54.943 63.2145C50.7756 63.2145 47.3841 59.8918 47.3841 55.8109C47.3841 51.73 50.7756 48.4073 54.943 48.4073C59.1105 48.4073 62.5001 51.7282 62.5001 55.8109C62.5001 59.8936 59.1105 63.2145 54.943 63.2145Z" fill="black"/>
<path d="M68.3358 93.9468C67.0372 92.5519 65.0536 91.8348 62.999 91.9743C63.0063 91.7186 63.0118 91.461 63.0082 91.1999C62.9426 85.0589 60.1394 78.891 55.6915 75.1051C55.4019 74.8583 54.9647 74.8887 54.7134 75.1731C54.462 75.4556 54.493 75.8848 54.7826 76.1316C58.9391 79.6689 61.5601 85.4487 61.622 91.2142C61.6257 91.6238 61.6129 92.0261 61.5929 92.4267C61.5128 92.5644 61.4782 92.7289 61.5128 92.897C61.5219 92.9435 61.5364 92.99 61.5565 93.033C61.3033 96.0445 60.3288 98.7305 58.726 100.88C58.6294 100.914 58.5402 100.968 58.4637 101.043C58.3489 101.157 58.2888 101.304 58.2743 101.452C57.8754 101.93 57.4455 102.379 56.9792 102.794C56.247 103.443 55.2853 103.802 54.2708 103.802H44.5808C43.6427 103.294 42.8559 102.558 42.3076 101.662C42.0945 101.318 41.916 100.952 41.7703 100.572C41.794 100.471 41.7976 100.363 41.7703 100.254C41.7339 100.116 41.6592 100 41.559 99.9126C41.4406 99.4745 41.3605 99.0238 41.324 98.5678C41.2366 97.4698 41.3678 96.3431 41.7266 95.3023C41.9051 94.7837 42.1346 94.2812 42.4297 93.8305C42.5754 93.5963 42.7284 93.4085 42.9032 93.2189C43.0763 93.0312 43.273 92.8684 43.4824 92.7236C43.8995 92.4303 44.3804 92.2389 44.874 92.1513C45.1217 92.1102 45.3731 92.1012 45.6208 92.1173C45.8685 92.1334 46.118 92.1889 46.3567 92.2586C47.3202 92.5537 48.0797 93.3209 48.5733 94.2472C48.8229 94.7104 49.0123 95.2183 49.1525 95.744C49.1562 95.7583 49.1598 95.7727 49.1617 95.787V96.7222C49.1617 96.9225 49.2527 97.1014 49.393 97.2248C49.3966 97.2748 49.4021 97.3249 49.4076 97.3768C49.4841 98.4962 49.3638 99.6443 49.1434 100.81C49.1252 100.907 49.1708 101.007 49.2618 101.055C49.3748 101.116 49.5168 101.077 49.5806 100.966C50.1871 99.8858 50.5532 98.6554 50.6352 97.3821C50.6571 97.0638 50.6607 96.7437 50.6388 96.4218C50.6261 96.1589 50.5951 95.896 50.5532 95.6332V95.2809C50.5733 95.254 50.5951 95.2272 50.6115 95.1986C50.8774 94.7265 51.2326 94.3009 51.6607 93.9468C52.0887 93.5945 52.5896 93.3155 53.1324 93.1313C54.2161 92.7611 55.4656 92.7736 56.5694 93.2207C56.7078 93.2762 56.8736 93.2225 56.9464 93.0902C57.0248 92.9489 56.9719 92.7719 56.8262 92.695C55.6459 92.0673 54.2088 91.8867 52.861 92.196C52.187 92.3498 51.5332 92.6234 50.9485 93.0115C50.8119 93.1009 50.6807 93.1993 50.5514 93.3012V90.4971C50.974 90.2396 51.3893 89.9732 51.7791 89.6763C52.2417 89.3383 52.6734 88.9681 53.0887 88.5818C53.5039 88.1974 53.8901 87.7861 54.2544 87.3569C54.6187 86.9259 54.9556 86.4895 55.2616 85.996C55.3381 85.8726 55.3108 85.708 55.1924 85.615C55.0631 85.5149 54.8773 85.5381 54.7753 85.6633L54.7644 85.6758C54.4438 86.0746 54.0631 86.4663 53.6752 86.8257C53.2835 87.187 52.8755 87.5285 52.4457 87.8415C52.0177 88.1544 51.5769 88.4495 51.1161 88.7088C50.7263 88.9395 50.3183 89.1362 49.9103 89.324C49.7828 89.3151 49.6553 89.3365 49.5387 89.3955C48.7354 89.8068 47.8757 90.0179 47.0561 90.0733C47.1326 90.0071 47.2091 89.9428 47.2783 89.8694C47.4823 89.6566 47.6517 89.4152 47.7828 89.1613C47.8466 89.0379 47.8138 88.8841 47.6972 88.7982C47.5661 88.6999 47.3785 88.7249 47.2783 88.8519V88.8555C46.9869 89.2256 46.6026 89.4867 46.1709 89.6548C45.8485 89.7818 45.5024 89.8605 45.1436 89.9124C44.6135 89.7782 44.1527 89.5726 43.8048 89.3115C43.7302 89.256 43.6628 89.1988 43.599 89.1398C43.9287 89.0397 44.2474 88.9055 44.5443 88.7321C45.1053 88.4066 45.5662 87.947 45.8977 87.4373C45.9742 87.3193 45.9559 87.1619 45.8485 87.0636C45.7264 86.9545 45.5388 86.9634 45.4259 87.0815C45.0598 87.4749 44.6227 87.7735 44.1454 87.9506C43.8085 88.0775 43.4533 88.1419 43.0908 88.1616C43.0744 87.9953 43.0836 87.8218 43.1254 87.6394C43.2183 87.2245 43.4752 86.8257 43.8486 86.5128L50.1543 81.2605C50.2928 81.2444 50.4275 81.1908 50.5387 81.0942L52.6661 79.2486C52.7644 79.1646 52.7972 79.0233 52.7389 78.9017C52.6679 78.7551 52.4876 78.6925 52.3382 78.7622L50.6516 79.5491C50.5623 78.9983 50.2782 78.494 49.8356 78.1274C49.2964 77.6821 48.5879 77.4961 47.8921 77.6141L47.2583 77.7214C43.9633 76.7003 35.2806 76.0386 31.8963 78.0505C31.6359 77.7626 31.3517 77.5408 31.0567 77.3656L32.7123 76.466C33.0475 76.2836 33.1677 75.8705 32.9837 75.5415C32.7979 75.2124 32.3754 75.0944 32.0402 75.2768L29.2972 76.7665C29.0786 76.7271 28.8637 76.6949 28.6578 76.6663C28.4047 76.6288 28.1642 76.5948 27.942 76.5483C27.3355 76.4249 26.8473 76.0404 26.545 75.74C26.1024 75.3018 25.4266 75.1427 24.8219 75.3394L23.5342 75.7561C23.0442 75.4932 22.4595 75.4699 21.9404 75.7132C21.3266 76.0011 20.9459 76.5948 20.9459 77.26V79.9461C18.9678 81.1496 17.7402 83.5013 17.8622 85.9369C17.9551 87.8272 18.8403 89.3776 20.3303 90.338C19.6345 90.4149 18.9624 90.6795 18.3923 91.1195C16.1118 92.8809 15.3924 96.15 16.5599 99.4476C17.7876 102.917 20.5962 105.158 23.7127 105.158H54.2726C55.6314 105.158 56.9246 104.675 57.9136 103.799C58.3453 103.416 58.7497 103.006 59.1303 102.575C60.5729 103.745 62.1248 104.351 63.6548 104.351C64.2048 104.351 64.7549 104.273 65.294 104.113C67.3577 103.505 69.0589 101.706 69.5325 99.6318C70.17 97.5145 69.7365 95.4436 68.3413 93.945L68.3358 93.9468ZM49.1598 92.5054C48.9959 92.3123 48.8211 92.1281 48.6243 91.9618C48.3584 91.7364 48.0761 91.5254 47.7628 91.3555C48.2346 91.2858 48.7045 91.1785 49.158 91.0247V92.5054H49.1598ZM48.9376 79.1682C49.1635 79.3542 49.2928 79.626 49.2928 79.9139V80.1893L42.9469 85.4773C42.3422 85.9799 41.9233 86.6451 41.7667 87.3479C41.5007 88.5354 41.9251 89.6173 42.9597 90.3916C43.2675 90.6223 43.6172 90.8137 43.9961 90.9692C43.5262 91.1177 43.0799 91.3341 42.681 91.613C42.3914 91.8133 42.1218 92.0387 41.8851 92.2944C41.6483 92.5447 41.4242 92.8309 41.253 93.1063C40.8887 93.6624 40.6173 94.2615 40.4061 94.8731C39.9853 96.0981 39.8359 97.3947 39.9361 98.6787C39.9707 99.1079 40.0381 99.5353 40.1365 99.9591L34.7869 101.288V81.2301L47.1635 79.1199C47.3384 79.1539 47.5133 79.1199 47.659 79.0358L48.1253 78.9554C48.4149 78.9053 48.7118 78.984 48.9376 79.17V79.1682ZM29.6305 81.4107H33.399V101.662C32.1349 101.969 30.6487 101.919 29.6305 101.524V81.4107ZM25.5523 76.6967C25.9894 77.1313 26.7089 77.6892 27.6561 77.8806C27.9183 77.9342 28.1879 77.9736 28.4502 78.0111C28.7198 78.0505 28.9784 78.088 29.2279 78.1381C29.2279 78.1381 29.2298 78.1381 29.2316 78.1381C30.0093 78.2937 30.6742 78.5655 31.1477 79.3488C31.2552 79.5258 31.4392 79.6474 31.6486 79.6761C31.6814 79.6814 31.7142 79.6832 31.7452 79.6832C31.92 79.6832 32.0912 79.617 32.2206 79.499C33.8434 78.0022 39.3806 77.8681 43.4861 78.3652L33.6012 80.0516H29.0148L24.8492 76.7629L25.2518 76.6324C25.3592 76.5966 25.4776 76.6216 25.5523 76.6967ZM22.3284 80.3556V77.2636C22.3284 77.0615 22.4723 76.9721 22.5342 76.9417C22.5961 76.9131 22.7582 76.8577 22.9185 76.9847L28.2426 81.1872V100.512L27.0368 99.5692C27.6488 95.5813 25.6871 92.4553 23.1699 91.0444C24.2172 90.9192 25.0751 90.3702 25.5833 89.4706C25.6106 89.4331 25.6324 89.392 25.6488 89.3472C25.7162 89.2167 25.7782 89.0826 25.831 88.9395C26.0987 88.2045 26.1352 87.3622 25.9439 86.5092C25.9876 86.4162 26.0077 86.3107 25.9949 86.2016C25.973 86.0228 25.871 85.8761 25.729 85.7831C25.2099 84.4151 24.0861 83.0882 22.3284 82.2101V80.3538V80.3556ZM19.2411 85.8726C19.1627 84.2792 19.8294 82.6912 20.9386 81.6611V82.6411C20.9386 82.9093 21.0989 83.1525 21.3503 83.2616C22.842 83.9126 23.7564 84.8586 24.2391 85.8171L22.8238 85.9816C22.689 85.996 22.5779 86.1015 22.5615 86.2374C22.5415 86.3983 22.6599 86.545 22.8238 86.5628L24.5851 86.7685C24.7308 87.4123 24.6944 88.015 24.5232 88.4835C24.5177 88.4978 24.5123 88.5103 24.5068 88.5228C24.27 88.4942 24.0278 88.4477 23.7855 88.3887C23.5651 88.3333 23.3429 88.2707 23.1225 88.1974C22.9039 88.1258 22.6799 88.0436 22.4741 87.9595L22.4632 87.9559C22.3357 87.9041 22.1845 87.9434 22.1025 88.0597C22.0096 88.192 22.0424 88.3744 22.1772 88.4656C22.3885 88.6105 22.5943 88.7356 22.8111 88.8608C23.026 88.9842 23.2464 89.1005 23.474 89.2095C23.6015 89.2703 23.7309 89.3258 23.8638 89.3812C23.3702 89.7335 22.6799 89.8158 21.853 89.6012C20.2756 88.961 19.3248 87.6036 19.2392 85.8708L19.2411 85.8726ZM17.8659 99.0041C17.1282 96.9225 17.0481 93.8878 19.2447 92.1889C19.8749 91.7024 20.6982 91.5487 21.4523 91.7793C23.9185 92.5358 26.1443 95.3113 25.7035 99.0685C25.6088 99.1722 25.545 99.3028 25.5286 99.4512L25.2918 101.531C25.2791 101.647 25.3392 101.767 25.4521 101.826C25.5997 101.901 25.7836 101.846 25.8601 101.701L26.3574 100.776L28.3373 102.323C28.4374 102.495 28.6087 102.618 28.8127 102.656C30.2935 103.353 32.6304 103.405 34.419 102.779L40.5536 101.256C40.7121 101.637 40.8978 102.01 41.1164 102.366C41.437 102.89 41.8304 103.371 42.2785 103.8H23.7072C20.649 103.8 18.6491 101.216 17.8659 99.0041ZM68.1901 99.2688C68.1847 99.2849 68.181 99.301 68.1774 99.3171C67.8149 100.936 66.4944 102.341 64.8897 102.813C63.3069 103.28 61.5838 102.813 59.9791 101.501C61.6184 99.2312 62.6257 96.4468 62.9171 93.3459C64.6183 93.1796 66.2631 93.734 67.3122 94.8624C68.3923 96.023 68.7038 97.5878 68.1919 99.2688H68.1901Z" fill="black"/>
<path d="M33.1259 51.6407C30.9529 51.233 28.7581 53.1197 28.2262 55.8522C27.6925 58.5847 29.0222 61.1295 31.1952 61.5372C33.3681 61.945 35.5629 60.0583 36.0948 57.3258C36.6285 54.5932 35.2988 52.0485 33.1259 51.6407ZM30.9238 60.1388C30.5759 60.3194 30.095 60.0959 29.8491 59.6416C29.6032 59.1874 29.687 58.6724 30.0349 58.4935C30.3828 58.3129 30.8637 58.5347 31.1095 58.9907C31.3554 59.4449 31.2717 59.96 30.9238 60.1406V60.1388ZM33.7889 56.183C33.0694 56.369 32.2825 55.7574 32.0312 54.8186C31.7798 53.8797 32.1569 52.9694 32.8763 52.7835C33.5958 52.5975 34.3827 53.2091 34.634 54.1479C34.8854 55.0868 34.5083 55.9971 33.7889 56.183Z" fill="black"/>
<path d="M57.9737 54.2892C57.4036 54.4913 56.8262 54.722 56.2944 54.9795C55.7589 55.2388 55.2543 55.5321 54.7899 55.8576C54.5513 56.015 54.3382 56.1974 54.1178 56.369L53.8118 56.6516C53.7626 56.6999 53.7061 56.7428 53.6588 56.7929L53.5185 56.9449C53.1251 57.3347 52.8191 57.7961 52.5186 58.2611L51.3893 57.138C51.4421 57.113 51.4767 57.0987 51.5131 57.0844C51.5496 57.0683 51.586 57.054 51.6188 57.0415C51.688 57.0164 51.7572 56.9896 51.8246 56.9681C51.9612 56.9216 52.096 56.8841 52.2326 56.8465C52.504 56.775 52.779 56.7249 53.0559 56.6874C53.6078 56.614 54.1688 56.6123 54.717 56.6838C55.2634 56.7571 55.8026 56.8894 56.298 57.1094C56.8007 57.3115 57.2506 57.6101 57.6586 57.932C57.7843 58.0304 57.8025 58.2092 57.7023 58.3326C57.6295 58.422 57.5111 58.456 57.4054 58.4292L57.3727 58.4202C57.1341 58.3594 56.9118 58.2772 56.6823 58.2253C56.451 58.177 56.2288 58.1162 55.9975 58.0912C55.5458 58.0143 55.0922 57.9964 54.6478 58.0161C54.2034 58.0304 53.7644 58.0948 53.3382 58.1985C53.2307 58.2217 53.1269 58.2557 53.0213 58.2825L52.7116 58.3809C52.6114 58.4167 52.5094 58.4524 52.4129 58.4936C52.3637 58.5132 52.3182 58.5347 52.2727 58.5544C52.249 58.5651 52.2271 58.574 52.2071 58.5848L52.1616 58.608L52.1452 58.617C51.7299 58.8208 51.2272 58.6563 51.0177 58.2504C50.8902 58 50.9066 57.7121 51.0323 57.4832C51.3747 56.8769 51.759 56.2761 52.269 55.7843C52.3911 55.6573 52.5131 55.5285 52.6533 55.4212L53.0613 55.085C53.3546 54.8883 53.6387 54.6827 53.9538 54.5289C54.5713 54.1998 55.227 53.962 55.8973 53.8243C56.0667 53.7957 56.2343 53.7617 56.4037 53.7402C56.5731 53.7223 56.7406 53.6991 56.9118 53.6937C57.2543 53.6758 57.5858 53.6794 57.9409 53.7277C58.1012 53.7492 58.2123 53.894 58.1905 54.0514C58.1759 54.1605 58.0994 54.2463 58.0011 54.2821L57.9737 54.291V54.2892Z" fill="black"/>
</svg>
